<?xml version="1.0" encoding="utf-8"?>
<!-- Generator: Adobe Illustrator 24.2.1, SVG Export Plug-In . SVG Version: 6.00 Build 0)  -->
<svg version="1.1" id="Layer_1" xmlns="http://www.w3.org/2000/svg" xmlns:xlink="http://www.w3.org/1999/xlink" x="0px" y="0px"
	 viewBox="0 0 1366 768" style="enable-background:new 0 0 1366 768;" xml:space="preserve">
<style type="text/css">
	.st0{fill:none;stroke:#000000;stroke-width:8;stroke-miterlimit:10;}
	.st1{stroke:#000000;stroke-width:8;stroke-miterlimit:10;}
</style>
<g id="Layer_2_1_">
	<g id="Layer_1-2">
		<path d="M209.5,125.1c78.4,0,142,63.6,142,142s-63.6,142-142,142c-78.4,0-142-63.6-142-142c0-37.7,15-73.8,41.6-100.4
			C135.7,139.9,171.9,125,209.5,125.1 M209.5,117.1c-82.8,0-150,67.2-150,150s67.2,150,150,150s150-67.2,150-150c0,0,0,0,0,0
			C359.5,184.2,292.4,117.1,209.5,117.1C209.5,117.1,209.5,117.1,209.5,117.1z"/>
		<path class="st0" d="M133.8,139.6L85.5,81.1v103.6C100.9,165.5,116.7,149.2,133.8,139.6z"/>
		<path class="st0" d="M284.3,139.6l48.2-58.5v103.6C317.2,165.5,301.3,149.2,284.3,139.6z"/>
		<circle class="st1" cx="146.5" cy="221.1" r="10"/>
		<circle class="st1" cx="236.5" cy="221.1" r="10"/>
		<path class="st0" d="M139.5,316.1h134C273.5,316.1,205.5,381.1,139.5,316.1z"/>
		<line class="st0" x1="351.5" y1="296" x2="1366" y2="296"/>
		<path class="st0" d="M243,411.1c0,0,87,18,87,91v192h81v-195c0,0,31-33,64,0v195h67v-198h824"/>
	</g>
</g>
</svg>
